<svg xmlns="http://www.w3.org/2000/svg" viewBox="0 0 143.01 62.09"><defs><style>.cls-1{fill:#2980b9;}</style></defs><title>Asset 1</title><g id="Layer_2" data-name="Layer 2"><g id="Layer_1-2" data-name="Layer 1"><path class="cls-1" d="M.29,11.77c.57-1.82,12.9-.35,12.9-.35L39.64,25.23s8-5.56,11.92-6.9,28.34.45,46.21,2.19c0,0-6.08-2.53-6.15-2.88s7.4-.13,7.4-.13,7.49,1.81,8.44,2.22c1.34.58,13.16-19.12,14-19.58s5.4.26,7.59.79c0,0-5.82,21.48-5.43,22.26s19.14,7.54,19.23,7.66.29.81,0,1a84.23,84.23,0,0,1-9.74-.32c-1.77-.25-8-2.3-12-3.45L80.88,44.61l52.7,15.58s-16.26,1.9-18.46,1.9-56.56-14.4-56.56-14.4l-33.12.52a6.9,6.9,0,0,1-3.47-3,12.44,12.44,0,0,1-1.84-5.76,16,16,0,0,1-6.48-2.29,8.64,8.64,0,0,1,3.09-3l2.37-1a4,4,0,0,1,1.23-1.6c1.74-1.28,4.43-.75,4.51-1.16,0,0,0-.08-.06-.13C22.4,28,.45,14.8,0,13.71A4.46,4.46,0,0,1,.29,11.77ZM53,31.48c2-4.19,3.89-8.24,4.28-9.18.65-1.57-3.53-4-8.71-1.32a72.73,72.73,0,0,0-8.72,6.07A82.09,82.09,0,0,0,53,31.48Zm2.34.39,12.79-.81c.24-2.4-.16-8.25-.48-8.25-1.7-.06-7.14-1.48-8.74,1.05C57,26.86,56,31.15,55.33,31.87Zm14.4-8.95a30.21,30.21,0,0,1,.69,7.94l7.47-.7a24.57,24.57,0,0,0-1-6.71c-1-.17-2.12-.31-3.3-.41C72.18,22.93,70.9,22.9,69.73,22.92Zm9.23.52A14.82,14.82,0,0,1,80,30l8.75-1.2a3.88,3.88,0,0,0,0-3.37c-.28-.34-3.44-1.07-5.56-1.46A38.47,38.47,0,0,0,79,23.44Z"/></g></g></svg>
