<svg id="Layer_1" data-name="Layer 1" xmlns="http://www.w3.org/2000/svg" viewBox="0 0 1316.95 184.04"><defs><style>.cls-1,.cls-2{fill:#2980b9;}.cls-2{stroke:#2980b9;stroke-miterlimit:10;stroke-width:3px;}</style></defs><title>mikeandeesa</title><g id="Layer_2" data-name="Layer 2"><g id="Layer_1-2" data-name="Layer 1-2"><path class="cls-1" d="M38.26,72.26c1.69-5.4,38.24-1,38.24-1l78.41,40.94s23.71-16.49,35.33-20.46,84,1.34,137,6.49c0,0-18-7.5-18.23-8.53s21.94-.39,21.94-.39,22.2,5.37,25,6.58c4,1.72,39-56.67,41.5-58s16,.77,22.49,2.35c0,0-17.25,63.67-16.09,66s56.73,22.35,57,22.7.86,2.41,0,3a250.69,250.69,0,0,1-28.87-.95c-5.25-.74-23.71-6.82-35.57-10.23l-119.25,49,156.21,46.18s-48.2,5.64-54.72,5.64S211,178.73,211,178.73l-98.18,1.54a20.41,20.41,0,0,1-10.28-8.89,36.88,36.88,0,0,1-5.46-17.07,47.45,47.45,0,0,1-19.2-6.79A25.5,25.5,0,0,1,87,138.63l7-3a11.89,11.89,0,0,1,3.65-4.74c5.15-3.8,13.13-2.22,13.36-3.44a.54.54,0,0,0-.17-.38C103.8,120.37,38.74,81.24,37.4,78A13.26,13.26,0,0,1,38.26,72.26Zm156.25,58.42c5.93-12.42,11.53-24.42,12.68-27.21,1.93-4.65-10.46-11.86-25.81-3.91a214.62,214.62,0,0,0-25.85,18A243.4,243.4,0,0,0,194.51,130.68Zm6.93,1.16,37.92-2.4c.71-7.12-.48-24.46-1.43-24.46-5-.18-21.16-4.38-25.9,3.11-5.67,8.9-8.63,21.61-10.62,23.75Zm42.69-26.53a89.45,89.45,0,0,1,2,23.53l22.15-2.07a73.17,73.17,0,0,0-3-19.89c-3-.5-6.28-.92-9.78-1.22-4.21-.32-8-.41-11.47-.35Zm27.36,1.54a44,44,0,0,1,3.05,19.44l25.94-3.55a11.51,11.51,0,0,0,0-10c-.83-1-10.2-3.17-16.48-4.33a115.48,115.48,0,0,0-12.42-1.57Z" transform="translate(-37.37 -37.38)"/></g></g><path class="cls-1" d="M568.65,71.33V183.47h-6.36V78.15L518.75,135,475.14,78.15V183.47h-6.37V71.33H478l40.75,53.13,40.67-53.13Z" transform="translate(-37.37 -37.38)"/><path class="cls-1" d="M593.13,92.11A5.89,5.89,0,0,1,595,96.47a6.3,6.3,0,0,1-6.29,6.34,6.2,6.2,0,0,1-4.5-1.82,6.09,6.09,0,0,1-1.87-4.52,5.89,5.89,0,0,1,1.87-4.36,6.21,6.21,0,0,1,4.5-1.83A6.11,6.11,0,0,1,593.13,92.11Zm-1.31,22.52v68.84h-6.29V114.63Z" transform="translate(-37.37 -37.38)"/><path class="cls-1" d="M642.83,114.63l-17,21,27.14,47.82h-7.8l-23.48-42.75-6.13,7.61v35.14h-6.36V85.37h6.36v52.89l19.18-23.63Z" transform="translate(-37.37 -37.38)"/><path class="cls-1" d="M660,143.42a25.06,25.06,0,0,0-.24,3.57,30.45,30.45,0,0,0,9.36,22.44,32,32,0,0,0,45.16-.08q1.59-1.59,3-3.33l6.76,2.38a34.06,34.06,0,0,1-5,5.71,38.64,38.64,0,0,1-66-27.12,38.69,38.69,0,0,1,66-27.29A32.5,32.5,0,0,1,729,143.42Zm1.2-6.43h60.64a29.81,29.81,0,0,0-7.56-12.53,32,32,0,0,0-45.2,0A32.15,32.15,0,0,0,661.22,137Z" transform="translate(-37.37 -37.38)"/><path class="cls-1" d="M854.54,183.47h-6.37v-14a47.77,47.77,0,0,1-4,4.68,38.64,38.64,0,0,1-66-27.12,38.69,38.69,0,0,1,66-27.29,50.24,50.24,0,0,1,4,4.68v-9.75h6.37Zm-6.37-30.3V140.72a31.47,31.47,0,1,0,0,12.45Z" transform="translate(-37.37 -37.38)"/><path class="cls-1" d="M875.87,130v53.46H869.5V114.63h6.37v4.44a27.52,27.52,0,0,1,20-8.56q12.26,0,19.94,7.65t7.84,19.23v46.08h-6.29V138a20.12,20.12,0,0,0-6.36-15,21.58,21.58,0,0,0-30.17-.08A23.08,23.08,0,0,0,875.87,130Z" transform="translate(-37.37 -37.38)"/><path class="cls-1" d="M1013.79,183.47h-6.36v-14a47.77,47.77,0,0,1-4,4.68,38.64,38.64,0,0,1-66-27.12,38.69,38.69,0,0,1,66-27.29,50.24,50.24,0,0,1,4,4.68v-53h6.36Zm-6.36-30.3V140.72a31.44,31.44,0,1,0,0,12.45Z" transform="translate(-37.37 -37.38)"/><path class="cls-1" d="M1126.49,71.33v6.34h-49.9v46.56h49.9v6.34h-49.9v46.55h49.9v6.35h-56.27V71.33Z" transform="translate(-37.37 -37.38)"/><path class="cls-1" d="M1146.47,143.42a25.06,25.06,0,0,0-.24,3.57,30.48,30.48,0,0,0,9.35,22.44,32,32,0,0,0,45.17-.08q1.59-1.59,3-3.33l6.77,2.38a34.24,34.24,0,0,1-5,5.71,38.65,38.65,0,0,1-66-27.12,38.69,38.69,0,0,1,66-27.29,32.47,32.47,0,0,1,10,23.72Zm1.19-6.43h60.65a30,30,0,0,0-7.56-12.53,32,32,0,0,0-45.21,0A32.39,32.39,0,0,0,1147.66,137Z" transform="translate(-37.37 -37.38)"/><path class="cls-1" d="M1244.12,146.51q-8-4.37-11.14-7.45a16.56,16.56,0,0,1,11.7-28.24,15.47,15.47,0,0,1,11.38,4.52,13.73,13.73,0,0,1,4.38,10v.31l-5.49,2.22q-.72-5.31-3.34-8a9.26,9.26,0,0,0-6.93-2.69,10.29,10.29,0,0,0-10.26,10.23,9.78,9.78,0,0,0,3,7.21,44.65,44.65,0,0,0,7.4,5.4q9,4.83,12.81,8.64a20.46,20.46,0,0,1-29,28.91q-6-6-6-13.13l6.29-1.58a14,14,0,0,0,4.18,10.27,13.69,13.69,0,0,0,10,4.16A14.31,14.31,0,0,0,1257.42,163a13.39,13.39,0,0,0-4.22-9.92A61.47,61.47,0,0,0,1244.12,146.51Z" transform="translate(-37.37 -37.38)"/><path class="cls-1" d="M1351.81,183.47h-6.37v-14a47.77,47.77,0,0,1-4,4.68,38.64,38.64,0,0,1-66-27.12,38.69,38.69,0,0,1,66-27.29,50.24,50.24,0,0,1,4,4.68v-9.75h6.37Zm-6.37-30.3V140.72a31.47,31.47,0,1,0,0,12.45Z" transform="translate(-37.37 -37.38)"/><line class="cls-2" x1="428.36" y1="170.41" x2="1316.95" y2="170.41"/></svg>
