<?xml version="1.0" standalone="no"?>
<!DOCTYPE svg PUBLIC "-//W3C//DTD SVG 20010904//EN"
 "http://www.w3.org/TR/2001/REC-SVG-20010904/DTD/svg10.dtd">
<svg version="1.0" xmlns="http://www.w3.org/2000/svg"
 width="300.000000pt" height="300.000000pt" viewBox="0 0 300.000000 300.000000"
 preserveAspectRatio="xMidYMid meet">
<metadata>
Created by potrace 1.11, written by Peter Selinger 2001-2013
</metadata>
<g transform="translate(0.000000,300.000000) scale(0.100000,-0.100000)"
fill="#000000" stroke="none">
<path d="M2489 2099 c-14 -19 -28 -38 -30 -44 -8 -19 -179 -270 -203 -298 -20
-23 -30 -27 -48 -21 -25 8 -29 9 -70 17 -15 3 -33 9 -40 13 -14 9 -168 13
-182 6 -11 -6 61 -42 83 -42 14 0 14 -2 1 -9 -8 -6 -18 -7 -23 -4 -5 3 -39 7
-75 9 -37 2 -80 6 -97 8 -16 3 -77 8 -134 12 -177 11 -186 12 -186 14 0 1 -88
3 -195 4 l-194 2 -66 -34 c-36 -19 -72 -40 -80 -47 -8 -6 -36 -24 -61 -38
l-47 -27 -48 26 c-27 15 -123 65 -214 112 -91 46 -185 96 -210 110 -54 30 -68
33 -192 39 -104 5 -138 -4 -138 -37 0 -22 54 -64 200 -155 110 -69 190 -121
206 -132 18 -14 48 -33 71 -45 33 -16 28 -25 -15 -32 -21 -3 -47 -15 -58 -27
-10 -12 -37 -30 -59 -42 -37 -18 -64 -43 -65 -58 0 -8 68 -38 99 -44 29 -5 29
-5 35 -37 5 -29 30 -84 49 -109 27 -36 48 -38 364 -34 171 3 315 5 320 7 4 1
29 -1 55 -6 26 -4 50 -7 53 -6 3 0 18 -6 34 -14 16 -9 31 -12 34 -9 4 3 13 0
22 -7 8 -7 15 -10 15 -7 0 3 15 1 33 -4 17 -6 41 -12 52 -14 11 -3 88 -23 170
-45 154 -42 185 -49 220 -53 11 -1 22 -4 25 -8 5 -5 157 -44 215 -55 17 -3 38
-10 48 -15 9 -5 17 -8 17 -5 0 3 20 -1 45 -8 25 -8 45 -12 45 -10 0 2 18 -3
40 -11 40 -14 146 -14 255 0 28 3 82 9 120 13 l70 7 -45 16 c-25 9 -88 29
-140 44 -52 15 -99 30 -105 33 -5 3 -22 7 -39 9 -16 2 -34 7 -40 12 -6 6 -23
12 -36 14 -14 2 -32 6 -40 9 -13 5 -109 33 -150 43 -8 2 -53 16 -100 30 -47
14 -92 28 -100 30 -8 2 -53 15 -100 29 -88 27 -95 29 -144 43 -26 8 -18 13 95
58 68 26 130 53 137 58 6 5 12 6 12 2 0 -4 6 -3 13 3 10 8 170 76 202 86 6 2
19 7 30 11 299 126 303 127 355 108 8 -3 20 -7 25 -8 6 -2 37 -11 70 -21 86
-25 80 -25 193 -29 56 -2 102 0 102 5 0 10 -19 24 -36 26 -6 1 -27 9 -45 17
-19 8 -61 25 -94 36 -33 12 -69 26 -80 31 -11 5 -47 20 -80 34 -33 14 -59 29
-58 35 1 5 5 24 8 43 3 18 11 51 17 73 6 22 11 46 11 53 0 6 4 12 9 12 5 0 7
4 4 8 -2 4 4 39 15 77 11 39 22 82 24 97 3 15 9 38 14 52 12 30 1 35 -84 43
-60 5 -61 5 -86 -28z m-1299 -394 c15 -13 17 -22 9 -36 -5 -11 -6 -19 -2 -19
4 0 2 -4 -5 -9 -7 -4 -15 -14 -16 -22 -2 -8 -15 -39 -30 -71 l-27 -56 -37 10
c-58 15 -183 58 -203 69 -23 12 -25 29 -4 29 8 0 15 4 15 8 0 4 15 16 33 27
17 10 34 22 37 26 3 5 33 22 65 39 67 35 130 37 165 5z m215 -40 c18 -4 20
-12 20 -79 0 -41 -3 -77 -6 -81 -4 -3 -46 -8 -95 -11 -49 -3 -101 -7 -117 -8
-34 -4 -39 4 -24 35 7 13 21 45 30 70 19 51 41 75 72 81 21 4 87 1 120 -7z
m135 -4 c59 -2 71 -11 76 -55 1 -21 6 -46 9 -56 7 -23 -6 -31 -64 -37 -90 -10
-85 -12 -87 32 -1 22 -4 59 -7 82 -5 35 -3 41 11 38 9 -2 37 -4 62 -4z m253
-31 c51 -13 69 -33 58 -64 -8 -20 -15 -22 -87 -30 -22 -3 -52 -8 -66 -11 -24
-6 -25 -4 -31 42 -3 26 -9 56 -13 67 -7 17 -3 18 42 13 27 -3 71 -11 97 -17z"/>
</g>
</svg>
